<?xml version="1.0" encoding="utf-8"?>
<!-- Generator: Adobe Illustrator 16.0.1, SVG Export Plug-In . SVG Version: 6.00 Build 0)  -->
<!DOCTYPE svg PUBLIC "-//W3C//DTD SVG 1.1//EN" "http://www.w3.org/Graphics/SVG/1.1/DTD/svg11.dtd">
<svg version="1.1" id="Слой_1" xmlns="http://www.w3.org/2000/svg" xmlns:xlink="http://www.w3.org/1999/xlink" x="0px" y="0px"
	 width="1000px" height="679px" viewBox="0 0 1000 679" enable-background="new 0 0 1000 679" xml:space="preserve">
<image overflow="visible" width="1000" height="679" xlink:href="floor_12.jpg" >
</image>
<polygon opacity="0.5" fill="#EFAF20" stroke="#FF0000" stroke-width="2" stroke-miterlimit="10" points="274,354 418.75,354 
	418.75,342.5 491.333,342.5 491.333,636.667 482.25,636.667 482.25,657.875 434.458,657.876 434.5,636.667 408.25,636.667 
	408.25,657.313 365.25,657.25 365,636.667 339.333,636.667 339.333,673.332 129.333,673.332 129.333,624 104.363,624 
	104.313,643.875 57.333,643.834 57.198,624 7,624 7,490 207.5,490 207.5,425.5 274,425.5 "/>
<polygon opacity="0.5" fill="#EFAF20" stroke="#FF0000" stroke-width="2" stroke-miterlimit="10" points="215,273.333 215,386 
	207.5,386 207.5,418.5 201,418.5 201,482 7,482 7,273.333 "/>
<polygon opacity="0.5" fill="#EFAF20" stroke="#FF0000" stroke-width="2" stroke-miterlimit="10" points="129.333,14 339.333,14 
	339.333,62 366,62 366.125,40.667 408.364,40.667 408.333,62 422.667,62 422.667,196.667 215,196.667 215,267.333 7,267.333 7,62 
	55.36,62 55.364,40.667 99.954,40.667 100,62 130,62 "/>
<polygon opacity="0.5" fill="#EFAF20" stroke="#FF0000" stroke-width="2" stroke-miterlimit="10" points="577.333,62 588.667,62 
	588.667,40.667 636,40.667 636,62 659.333,62 659.333,14 869,14 869,62 896.667,62 896.667,40.667 943.334,40.667 943.334,62 
	994,62 994,196.667 994,267.333 783,267.333 782,196.667 577.333,196.667 "/>
<polygon opacity="0.5" fill="#EFAF20" stroke="#FF0000" stroke-width="2" stroke-miterlimit="10" points="783,273.333 994,273.333 
	994,482 799,482 799,418.5 792.5,418.5 792.5,387.5 783,387.5 "/>
<polygon opacity="0.5" fill="#EFAF20" stroke="#FF0000" stroke-width="2" stroke-miterlimit="10" points="508.667,342.5 580,342.5 
	580,354 727,354 727,425.5 792.5,425.5 792.5,490 994,490 994,624 869,624 869,672 659.333,672 659.333,636.667 636,636.667 
	636,658.667 588.667,658.667 588.667,636.667 566,636.667 566,658.667 518.334,658.667 518.334,636.667 508.667,636.667 "/>
<image overflow="visible" width="49" height="49" xlink:href="plus.png"  transform="matrix(1 0 0 1 280.917 516.0205)">
</image>
<image overflow="visible" width="49" height="49" xlink:href="plus.png"  transform="matrix(1 0 0 1 90.3335 345.833)">
</image>
<image overflow="visible" width="49" height="49" xlink:href="plus.png"  transform="matrix(1 0 0 1 181.4189 99.3867)">
</image>
<image overflow="visible" width="49" height="49" xlink:href="plus.png"  transform="matrix(1 0 0 1 768 99.3867)">
</image>
<image overflow="visible" width="49" height="49" xlink:href="plus.png"  transform="matrix(1 0 0 1 872.167 345.833)">
</image>
<image overflow="visible" width="49" height="49" xlink:href="plus.png"  transform="matrix(1 0 0 1 671.5 516.0205)">
</image>
</svg>
