
<svg class="flatPointer floorImg" version="1.1"  xmlns="http://www.w3.org/2000/svg" xmlns:xlink="http://www.w3.org/1999/xlink" x="0px" y="0px"
 width="400px" height="550px" viewBox="0 0 400 550" enable-background="new 0 0 400 550" xml:space="preserve">
 <image  overflow="visible" width="400" height="550" xlink:href="images/floor-1.png"></image>
<g data-flat="flat-1">
    <polygon points="176.667,538.664 176.667,275 2,275 0,538.664 "/>
     <image overflow="visible" width="49" height="49" xlink:href="images/plus.png" transform="matrix(1 0 0 1 73.1133 383.333)">
    </image>
</g>
<g data-flat="flat-2">
    <polygon points="376,538.664 376,500.667 388.334,500.667 388.334,340 253,340 253,279.333 
    215.334,279.333 215.334,365.333 178,365 178,538.664 "/>
    <image overflow="visible" width="49" height="49" xlink:href="images/plus.png" transform="matrix(1 0 0 1 288.8652 383.333)">
    </image>
</g>
<g data-flat="flat-3">
    <polygon points="219,166.75 219,278.25 254.25,279.333 254.25,340 384,340 384,166.75 "/>
    <image overflow="visible" width="49" height="49" xlink:href="images/plus.png" transform="matrix(1 0 0 1 288.8652 216.666)">
    </image>
</g>
<g data-flat="flat-4">
    <polygon points="55.75,166.75 55.75,15.25 309.75,15.25 309.75,22 374.5,22.25 374.5,51.25 
    387.5,53.25 385.75,166.75 "/>
    <image overflow="visible" width="49" height="49" xlink:href="images/plus.png" transform="matrix(1 0 0 1 197.6416 66.3516)">
    </image>
</g>
</svg>