<?xml version="1.0" encoding="utf-8"?>
<!-- Generator: Adobe Illustrator 16.0.1, SVG Export Plug-In . SVG Version: 6.00 Build 0)  -->
<!DOCTYPE svg PUBLIC "-//W3C//DTD SVG 1.1//EN" "http://www.w3.org/Graphics/SVG/1.1/DTD/svg11.dtd">
<svg version="1.1" id="Слой_1" xmlns="http://www.w3.org/2000/svg" xmlns:xlink="http://www.w3.org/1999/xlink" x="0px" y="0px"
	 width="1000px" height="688px" viewBox="0 0 1000 688" enable-background="new 0 0 1000 688" xml:space="preserve">
<image overflow="visible" width="1000" height="688" xlink:href="floor_6-9.jpg" >
</image>
<g>
	<polygon opacity="0.5" fill="#D7A504" points="279.333,355 419.5,355 419.5,344 449.333,344 449.333,341.5 490,341.5 490,659 
		367,659 367,665.5 350,665.5 350,663.001 279.333,663.001 	"/>
	<image overflow="visible" width="49" height="49" xlink:href="plus.png"  transform="matrix(1 0 0 1 367 474)">
	</image>
</g>
<g>
	<polyline opacity="0.5" fill="#D7A504" points="25.5,466 25.5,424.25 184,424.25 184,347.5 223.5,347.5 223.5,456.667 274,456.667 
		274,663.001 133.25,663.001 133.25,665.5 115.667,665.5 115.667,659 75,659 75,654.5 44.75,654.5 44.75,659 34,659 34,616.25 
		21.667,616.25 21.667,479.333 18.667,479.333 18.667,466 	"/>
	<image overflow="visible" width="49" height="49" xlink:href="plus.png"  transform="matrix(1 0 0 1 133.25 516)">
	</image>
</g>
<g>
	<polygon opacity="0.5" fill="#D7A504" points="18.667,208.5 223.5,208.5 223.5,341.5 177.25,341.5 177.25,417.5 25.5,417.5 
		25.5,222.167 18.667,222.167 	"/>
	<image overflow="visible" width="49" height="49" xlink:href="plus.png"  transform="matrix(1 0 0 1 89.667 276.8755)">
	</image>
</g>
<g>
	<polyline opacity="0.5" fill="#D7A504" points="367,25.334 367,30 410.333,30 410.333,71.333 424.333,71.333 424.333,203 
		21.667,203 21.667,71.333 34,71.333 34,30 115.667,30 115.667,25.334 	"/>
	<image overflow="visible" width="49" height="49" xlink:href="plus.png"  transform="matrix(1 0 0 1 196.5 89.5425)">
	</image>
</g>
<g>
	<polygon opacity="0.5" fill="#D7A504" points="590.5,30 633.25,30 633.25,25.334 884.334,25.334 884.334,30 965.75,30 
		965.75,71.333 978,71.333 978,203 577.75,203 577.75,71.333 590.532,71.333 	"/>
	<image overflow="visible" width="49" height="49" xlink:href="plus.png"  transform="matrix(1 0 0 1 752.167 89.5425)">
	</image>
</g>
<g>
	<polygon opacity="0.5" fill="#D7A504" points="776.667,208.5 980.667,208.5 980.667,222.167 975,222.167 975,341.5 975,417.5 
		823,417.5 823,341.5 776.667,341.5 	"/>
	<image overflow="visible" width="49" height="49" xlink:href="plus.png"  transform="matrix(1 0 0 1 854.167 276.8755)">
	</image>
</g>
<g>
	<polygon opacity="0.5" fill="#D7A504" points="776.667,347.5 816.333,347.5 816.333,424.25 975,424.25 975,466 980.667,466 
		980.667,479.333 978,479.333 978,616.25 965.75,616.25 965.75,659 955.5,659 955.5,654.5 926,654.5 926,659 860.969,659 
		861,663.001 726,663.001 726,456.667 776.667,456.667 	"/>
	<image overflow="visible" width="49" height="49" xlink:href="plus.png"  transform="matrix(1 0 0 1 816.333 516)">
	</image>
</g>
<g>
	<polygon opacity="0.5" fill="#D7A504" points="510.5,341.5 581,341.5 581,355 722,355 722,663.001 650.25,663.001 650.25,665.5 
		633.25,665.5 633.25,659.25 590.5,659 510.5,659 	"/>
	<image overflow="visible" width="49" height="49" xlink:href="plus.png"  transform="matrix(1 0 0 1 590.5 474)">
	</image>
</g>
</svg>
