<?xml version="1.0" encoding="utf-8"?>
<!-- Generator: Adobe Illustrator 16.0.1, SVG Export Plug-In . SVG Version: 6.00 Build 0)  -->
<!DOCTYPE svg PUBLIC "-//W3C//DTD SVG 1.1//EN" "http://www.w3.org/Graphics/SVG/1.1/DTD/svg11.dtd">
<svg version="1.1" id="Слой_1" xmlns="http://www.w3.org/2000/svg" xmlns:xlink="http://www.w3.org/1999/xlink" x="0px" y="0px"
	 width="1000px" height="674px" viewBox="0 0 1000 674" enable-background="new 0 0 1000 674" xml:space="preserve">
<image overflow="visible" width="1000" height="674" xlink:href="floor_10-11.jpg" >
</image>
<g>
	<polygon opacity="0.5" fill="#EFAF20" points="276.5,349.5 418.5,349.5 418.5,335.5 491,335.5 491,660.001 348.333,660.001 
		348.333,635.334 341.5,635.334 341.5,660.001 135,660.001 135,616 128,616 128,660.001 27.5,660.001 27.5,616 14.5,616 14.5,481.5 
		212.5,481.5 212.5,420 276.234,420 	"/>
	<image overflow="visible" width="49" height="49" xlink:href="plus.png"  transform="matrix(1 0 0 1 284.5005 511.9883)">
	</image>
</g>
<g>
	<polygon opacity="0.5" fill="#EFAF20" points="19,262 52.5,262 52.5,269.5 220,269.5 220,380.5 212.5,380.5 212.5,412 205,412 
		205,476.5 14.5,476.5 14.5,462.5 19,462.5 	"/>
	<image overflow="visible" width="49" height="49" xlink:href="plus.png"  transform="matrix(1 0 0 1 92.75 349.5)">
	</image>
</g>
<g>
	<polygon opacity="0.5" fill="#EFAF20" points="27.5,19.5 128,19.5 128,62 135,62 135,14.5 341.5,14.5 341.5,62 348.333,62 
		348.333,19.5 418.5,19.5 418.5,62 423,62 423,193.5 220,193.5 220,262 57.5,262 57.5,256 19,256 19,213.667 14.5,213.667 14.5,62 
		27.5,62 	"/>
	<image overflow="visible" width="49" height="49" xlink:href="plus.png"  transform="matrix(1 0 0 1 195.5 81.5156)">
	</image>
</g>
<g>
	<polygon opacity="0.5" fill="#EFAF20" points="580.5,19.5 651,19.5 651,62 658,62 658,14.5 864,14.5 864,62 872,62 872,19.5 
		973.5,19.5 973.5,62 985,62 985,193.5 985,256 942,256 942.5,262 779.5,262 779.5,193.5 575,193.5 575,62 580.5,62 	"/>
	<image overflow="visible" width="49" height="49" xlink:href="plus.png"  transform="matrix(1 0 0 1 755.5 81.5156)">
	</image>
</g>
<g>
	<polygon opacity="0.5" fill="#EFAF20" points="779.5,269.5 948.001,269.5 948.001,262 980.5,262 980.5,462.5 987.001,462.5 
		987.001,476.5 794.5,476.5 794.5,412 788.5,412 788.5,380.5 779.5,380.5 	"/>
	<image overflow="visible" width="49" height="49" xlink:href="plus.png"  transform="matrix(1 0 0 1 853.9004 344.9092)">
	</image>
</g>
<g>
	<polygon opacity="0.5" fill="#EFAF20" points="508.667,335.5 580.5,335.5 580.5,349.5 722.5,349.5 722.5,420 788.5,420 
		788.5,481.5 985,481.5 985,616 973.5,616 973.5,660.001 872,660.001 872,635.334 864,635.334 864,660.001 658,660.001 658,626.667 
		651,626.667 651,660.001 508.667,660.001 	"/>
	<image overflow="visible" width="49" height="49" xlink:href="plus.png"  transform="matrix(1 0 0 1 663.9814 511.9883)">
	</image>
</g>
</svg>
