
<svg version="1.1" id="Шар_1" xmlns="http://www.w3.org/2000/svg" xmlns:xlink="http://www.w3.org/1999/xlink" x="0px" y="0px"
	 width="1920px" height="955px" viewBox="0 0 1920 955" enable-background="new 0 0 1920 955" xml:space="preserve">
<image  overflow="visible" width="1920" height="955" xlink:href="images/house.jpg"></image>
<polygon opacity="0.6" fill="#FFFFFF" points="259.667,691.334 503.667,691.334 1696.554,691.334 1696.554,714.5 503.667,722.667 
	259.667,717.334 "/>
<polygon opacity="0.6" fill="#FFFFFF" points="261,653.001 505,644.334 1696.554,659.25 1696.554,690.5 504.25,690.5 
	259.667,691.334 "/>
<polygon opacity="0.6" fill="#FFFFFF" points="262,614.333 505,598.667 1695.002,625.333 1695.002,659.23 505,644.334 262,651.667 
	"/>
<polygon opacity="0.6" fill="#FFFFFF" points="262,575.667 505.669,549 1695.002,590.667 1695.002,624 505,598.667 262,613 "/>
<polygon opacity="0.6" fill="#FFFFFF" points="262,536.333 506.667,501.333 1695.002,557.667 1695.002,590.667 505.669,549 
	262,575.667 "/>
<polygon opacity="0.6" fill="#FFFFFF" points="262,499 508,453 1693,524 1693,557.572 506.667,501.333 262,534 "/>
<polygon opacity="0.6" fill="#FFFFFF" points="262,466 507.667,408 1693,491.333 1693,524 508,453 262,499 "/>
<polygon opacity="0.6" fill="#FFFFFF" points="266.333,429 509.333,355.333 1693,455.667 1693,491.333 507.667,408 262,466 "/>
</svg>
