<?xml version="1.0" encoding="utf-8"?>
<!-- Generator: Adobe Illustrator 16.0.1, SVG Export Plug-In . SVG Version: 6.00 Build 0)  -->
<!DOCTYPE svg PUBLIC "-//W3C//DTD SVG 1.1//EN" "http://www.w3.org/Graphics/SVG/1.1/DTD/svg11.dtd">
<svg version="1.1" id="Слой_1" xmlns="http://www.w3.org/2000/svg" xmlns:xlink="http://www.w3.org/1999/xlink" x="0px" y="0px"
	 width="1920px" height="955px" viewBox="0 0 1920 955" enable-background="new 0 0 1920 955" xml:space="preserve">
<image overflow="visible" width="1920" height="955" xlink:href="C:\Users\Serhiy\Desktop\05.jpg" >
</image>
<polyline opacity="0.5" fill="#F4A827" stroke="#000000" stroke-miterlimit="10" points="705.5,809.831 735.25,808.75 735.25,805 
	866.667,797.333 871.333,798.333 1013.75,790 1013.833,785.667 1193.021,774.896 1198,778.334 1274.75,775.75 1288.047,774.348 
	1479.354,799.637 1483.688,850.971 1280.167,833.334 1244,826.375 995.688,835.688 995.563,829.625 1010,830 1010,827.5 984,826 
	867,830.834 867,842.001 703.744,848.838 705.5,809.831 "/>
<polygon opacity="0.5" fill="#F4A827" stroke="#000000" stroke-miterlimit="10" points="707.99,754.516 736.667,752.082 
	867.5,740.334 873.166,742.334 1012.666,728.834 1190.5,712.25 1194.5,715.75 1254.75,711.5 1270,714.25 1284.5,712 
	1347.75,723.729 1347.75,727.75 1358,729.75 1475.105,749.328 1479.354,799.637 1288.047,774.348 1274.75,775.75 1198,778.334 
	1193.021,774.896 1013.833,785.667 1013.75,790 871.618,798.316 866.667,797.333 735.25,805 735.25,808.75 705.5,809.831 "/>
<polygon opacity="0.5" fill="#F4A827" stroke="#000000" stroke-miterlimit="10" points="709.758,715.25 738.25,712.5 867.25,696.5 
	873.25,696.5 1012,679.25 1184.5,656.75 1192.75,656.75 1251.334,651.25 1267.75,655 1281.875,652.313 1343.75,666.75 
	1343.75,672.375 1416.834,692.167 1423.667,691.667 1471.13,702.249 1475.105,749.328 1358,729.75 1347.75,727.75 1347.75,723.729 
	1284.5,712 1270,714.25 1254.75,711.5 1194.5,715.75 1190.5,712.25 873.166,742.334 867.5,740.334 707.99,754.516 "/>
<polygon opacity="0.5" fill="#F4A827" stroke="#000000" stroke-miterlimit="10" points="711.795,669.992 739.333,665.001 
	867,646.334 873.333,646.334 1011.666,625.334 1185.331,599.998 1190.665,599.998 1248.665,591.331 1264.331,595.998 
	1278.914,592.992 1340.331,611.665 1340.493,617.373 1347.998,619.331 1352.331,619.331 1412.998,637.998 1419.331,637.998 
	1466.823,651.25 1471.13,702.249 1423.667,691.667 1416.834,692.167 1343.75,672.375 1343.75,666.75 1281.875,652.313 1267.75,655 
	1251.334,651.25 1192.75,656.75 1184.5,656.75 1012,679.25 873.948,696.413 867.25,696.5 738.25,712.5 709.758,715.25 "/>
<polygon opacity="0.5" fill="#F4A827" stroke="#000000" stroke-miterlimit="10" points="713.81,625.253 741.75,619.25 870,596.75 
	874.5,596.75 1011,572.25 1184,543.25 1188.25,543.25 1246,533.25 1262,538.5 1275.993,534.987 1336.833,554.833 1337.083,563.709 
	1344.25,565.75 1349.25,565.75 1408.75,588 1415.5,587.25 1462.811,603.724 1466.823,651.25 1419.331,637.998 1412.998,637.998 
	1352.331,619.331 1347.998,619.331 1340.493,617.373 1340.331,611.665 1278.914,592.992 1264.331,595.998 1248.665,591.331 
	1190.665,599.998 1185.331,599.998 1011.666,625.334 873.333,646.334 867,646.334 739.333,665.001 711.795,669.992 "/>
<polygon opacity="0.5" fill="#F4A827" stroke="#000000" stroke-miterlimit="10" points="715.861,579.69 743.101,573.334 
	870.333,546.667 875.333,548 1010.667,519.667 1182.333,486 1186,486 1242.999,475.668 1258.332,481.668 1273.079,477.123 
	1333.5,503.5 1333.5,509.875 1405.668,540.834 1412.001,540.167 1458.99,558.479 1462.811,603.724 1415.5,587.25 1408.75,588 
	1349.25,565.75 1344.25,565.75 1337.083,563.709 1336.833,554.833 1275.993,534.987 1262,538.5 1246,533.25 1188.25,543.25 
	1184,543.25 1011,572.25 874.5,596.75 870,596.75 741.75,619.25 713.81,625.253 "/>
<polygon opacity="0.5" fill="#F4A827" stroke="#000000" stroke-miterlimit="10" points="717.813,536.324 871.333,499.333 
	876,500.333 1009.999,469.668 1179.667,430.583 1183.751,432 1241,419.67 1255,426.003 1270,421.25 1329.666,448.67 
	1329.967,458.15 1338.375,462.333 1342.708,462.083 1401.751,491.584 1408.334,490.667 1455.109,512.519 1458.99,558.479 
	1412.001,540.167 1405.668,540.834 1333.5,509.875 1333.5,503.5 1273.079,477.123 1258.332,481.668 1242.999,475.668 1186,486 
	1182.333,486 1010.667,519.667 875.333,548 870.333,546.667 743.101,573.334 715.861,579.69 "/>
<polygon opacity="0.5" fill="#F4A827" stroke="#000000" stroke-miterlimit="10" points="719.765,492.967 747.167,485.167 
	747.167,482.333 872.542,451.417 876.833,453.307 1010.332,419.67 1010.332,415.75 1177,374.335 1182.334,378.335 1238.5,364 
	1252.593,371.819 1267.559,367.516 1326.833,397.833 1327.085,407.269 1333.833,410 1339.25,408 1390.5,434.25 1390.5,440.25 
	1398.75,444.25 1404.625,442.75 1451.383,467 1455.109,512.519 1408.334,490.667 1401.751,491.584 1342.708,462.083 
	1338.375,462.333 1329.967,458.15 1329.666,448.67 1270,421.25 1255,426.003 1241,419.67 1183.751,432 1179.667,430.583 
	876,500.333 871.333,499.333 717.813,536.324 "/>
<polygon opacity="0.5" fill="#F4A827" stroke="#000000" stroke-miterlimit="10" points="721.551,448.75 875.75,407.5 1030.75,365.5 
	1150.75,333.5 1235.5,310.5 1249.667,318.5 1264.905,314.821 1323.417,348.083 1323.688,356.125 1330.625,360.25 1334.219,358.969 
	1386.167,387 1386.5,393 1394.5,397.125 1400.75,395.375 1447.435,421.628 1451.383,467 1404.625,442.75 1398.75,444.25 
	1390.5,440.25 1390.5,434.25 1339.25,408 1333.833,410 1327.085,407.269 1326.833,397.833 1267.559,367.516 1252.593,371.819 
	1238.5,364 1182.334,378.335 1177,374.335 1010.332,415.75 1010.332,419.67 876.833,453.307 872.542,451.417 747.167,482.333 
	747.167,485.167 719.765,492.967 "/>
<polygon opacity="0.5" fill="#F4A827" stroke="#000000" stroke-miterlimit="10" points="729.667,411.75 759.063,403.375 
	759.048,396.167 863,365.167 877.5,367 1021.999,323.667 1021.999,318 1158.75,277.25 1181.667,287.833 1262.354,264.158 
	1320.5,301 1320.5,306.667 1327.083,311.667 1331.125,310.5 1382.667,341 1382.667,345.667 1390.667,351.5 1396.667,350.333 
	1443.805,378.638 1447.435,421.628 1400.75,395.375 1394.5,397.125 1386.5,393 1386.167,387 1334.219,358.969 1330.625,360.25 
	1323.688,356.125 1323.417,348.083 1264.905,314.821 1249.667,318.5 1235.5,310.5 1030.75,365.5 875.75,407.5 721.551,448.75 
	717.25,450.162 718.317,432.222 722.572,430.615 729.5,428 "/>
<polygon opacity="0.5" fill="#F4A827" stroke="#000000" stroke-miterlimit="10" points="730.5,361.75 761,351.5 761,342 
	863.25,308.75 879.25,315 879.25,310.5 1021,264.158 1021,258.333 1157,214.333 1176.334,224.667 1176.334,220.333 
	1258.795,193.485 1315.75,235 1317.25,264.158 1365.75,296.25 1392.5,288.75 1438.811,319.495 1443.805,378.638 1396.667,350.333 
	1390.667,351.5 1382.667,345.667 1382.667,341 1331.125,310.5 1327.083,311.667 1320.5,306.667 1320.5,301 1262.354,264.158 
	1181.667,287.833 1158.75,277.25 1021.999,318 1021.999,323.667 877.5,367 863,365.167 759.048,396.167 759.063,403.375 
	729.667,411.75 "/>
</svg>
